<?xml version="1.0" encoding="UTF-8" standalone="no"?>
<!-- Created with Inkscape (http://www.inkscape.org/) -->

<svg
   id="svg4155"
   version="1.1"
   inkscape:version="1.1.2 (0a00cf5339, 2022-02-04)"
   xml:space="preserve"
   width="101.25"
   height="38.75"
   viewBox="0 0 101.25 38.75"
   sodipodi:docname="rotag-logo-dark-bg.svg"
   xmlns:inkscape="http://www.inkscape.org/namespaces/inkscape"
   xmlns:sodipodi="http://sodipodi.sourceforge.net/DTD/sodipodi-0.dtd"
   xmlns:xlink="http://www.w3.org/1999/xlink"
   xmlns="http://www.w3.org/2000/svg"
   xmlns:svg="http://www.w3.org/2000/svg"
   xmlns:rdf="http://www.w3.org/1999/02/22-rdf-syntax-ns#"
   xmlns:cc="http://creativecommons.org/ns#"
   xmlns:dc="http://purl.org/dc/elements/1.1/"><metadata
     id="metadata4161"><rdf:RDF><cc:Work
         rdf:about=""><dc:format>image/svg+xml</dc:format><dc:type
           rdf:resource="http://purl.org/dc/dcmitype/StillImage" /></cc:Work></rdf:RDF></metadata><defs
     id="defs4159"><linearGradient
       inkscape:collect="always"
       id="linearGradient4208"><stop
         style="stop-color:#aa0000;stop-opacity:1;"
         offset="0"
         id="stop4210" /><stop
         style="stop-color:#ff7f2a;stop-opacity:1"
         offset="1"
         id="stop4212" /></linearGradient><linearGradient
       inkscape:collect="always"
       xlink:href="#linearGradient4208"
       id="linearGradient4214"
       x1="14.00536"
       y1="30.075039"
       x2="38.985069"
       y2="5.1998477"
       gradientUnits="userSpaceOnUse" /></defs><sodipodi:namedview
     pagecolor="#ffffff"
     bordercolor="#666666"
     borderopacity="1"
     objecttolerance="10"
     gridtolerance="10"
     guidetolerance="10"
     inkscape:pageopacity="0"
     inkscape:pageshadow="2"
     inkscape:window-width="1920"
     inkscape:window-height="1031"
     id="namedview4157"
     showgrid="false"
     inkscape:zoom="4.783883"
     inkscape:cx="33.550152"
     inkscape:cy="-6.7936444"
     inkscape:window-x="0"
     inkscape:window-y="25"
     inkscape:window-maximized="1"
     inkscape:current-layer="g4167"
     inkscape:pagecheckerboard="0" /><g
     id="g4163"
     inkscape:groupmode="layer"
     inkscape:label="ink_ext_XXXXXX"
     transform="matrix(1.25,0,0,-1.25,0,38.75)"><g
       id="g4165"
       transform="scale(0.1,0.1)"><g
         id="g4167"
         transform="matrix(10,0,0,10,6.6891269,0)"><text
   transform="scale(1,-1)"
   style="font-variant:normal;font-weight:normal;line-height:0%;font-family:'DejaVu Sans';-inkscape-font-specification:DejaVuSans;writing-mode:lr-tb;fill:#000000;fill-opacity:1;fill-rule:nonzero;stroke:none"
   id="text4169"
   x="-1.30625"
   y="-7.65625"><tspan
     x="-1.30625"
     y="-7.65625"
     sodipodi:role="line"
     id="tspan4171"
     style="font-style:normal;font-variant:normal;font-weight:normal;font-stretch:normal;font-size:24px;line-height:1.25;font-family:'DejaVu Sans';-inkscape-font-specification:'DejaVu Sans';fill:#ffffff">r   tag</tspan></text>
</g><g
         id="g4177"
         style="fill:#aa0000"
         transform="translate(0,-22.80245)"><path
           style="fill:url(#linearGradient4214);fill-opacity:1;fill-rule:nonzero;stroke:none"
           d="M 26.914062,5.140625 C 23.877937,5.058125 21.01075,6.1480469 18.734375,8.0917969 18.09075,7.2569219 17.539125,6.3427187 17.265625,5.3867188 l -0.482422,0.027344 -1.871094,10.8027342 9.371094,-4.523438 -0.138672,-0.46875 c -0.86375,0.0835 -1.863844,-0.261734 -2.839843,-0.833984 2.461375,-1.7914997 5.727062,-2.3095935 8.710937,-1.0742185 4.1885,1.7333745 6.419422,6.2753905 5.248047,10.6503905 -1.172375,4.38 -5.376391,7.187016 -9.869141,6.595703 -4.49125,-0.59125 -7.826172,-4.394531 -7.826172,-8.925781 l 0,-0.248047 -3.501953,0 0,0.248047 c 0,6.26025 4.663141,11.576659 10.869141,12.396484 6.206625,0.816413 12.091766,-3.114706 13.712891,-9.160156 1.621,-6.04975 -1.510751,-12.3915623 -7.296876,-14.7890623 -1.444749,-0.59525 -2.947375,-0.9033594 -4.4375,-0.9433594 z m -0.347656,10.474609 c -1.1235,0 -2.035156,0.90961 -2.035156,2.03711 0,1.127375 0.911656,2.039062 2.035156,2.039062 1.1275,0 2.042969,-0.911687 2.042969,-2.039062 0,-1.1275 -0.915469,-2.03711 -2.042969,-2.03711 z"
           id="path4173"
           transform="matrix(8,0,0,-8,0,310)"
           inkscape:connector-curvature="0" /></g></g></g></svg>
